<svg xmlns="http://www.w3.org/2000/svg" width="35.395" height="27.999" viewBox="0 0 35.395 27.999">
  <path id="Exclusion_36" data-name="Exclusion 36" d="M29.533,28h-.386a2.79,2.79,0,0,1-2.706-3.457H9.609a2.75,2.75,0,0,1,.071.626,2.79,2.79,0,0,1-2.786,2.787H6.556a2.787,2.787,0,0,1-2.29-4.376,5.707,5.707,0,0,1-.73-.556A5.169,5.169,0,0,1,2.3,21.376a4.717,4.717,0,0,1,0-4.037,5.191,5.191,0,0,1,1.236-1.649c.063-.057.126-.111.193-.166l-1.869.029H1.825A1.752,1.752,0,0,1,0,13.941a1.542,1.542,0,0,1,.446-1.1,1.92,1.92,0,0,1,1.348-.567l3.316-.052h.031a2,2,0,0,1,.487.06l.883-4.769.315-.393,1.765-.351,5.082-.67,4.634-.4-.4,2.213L12.722,8.3,8.592,8.75,7.486,14.174H22.729a8.017,8.017,0,0,0,4.91,1.546c.082,0,.175,0,.3,0a8.661,8.661,0,0,0,3.745-.95,5.592,5.592,0,0,1,2.233,1.874,4.788,4.788,0,0,1,.855,2.719,4.708,4.708,0,0,1-.453,2.019,5.185,5.185,0,0,1-1.237,1.648,5.76,5.76,0,0,1-1.135.794A2.788,2.788,0,0,1,29.533,28Zm.287-10.737a2.454,2.454,0,0,0-2.571,2.311,2.586,2.586,0,0,0,5.144,0A2.455,2.455,0,0,0,29.82,17.262Zm-22.591,0a2.454,2.454,0,0,0-2.571,2.311,2.455,2.455,0,0,0,2.571,2.312A2.455,2.455,0,0,0,9.8,19.573,2.455,2.455,0,0,0,7.229,17.262Zm20.692-3.824c-4.121,0-7.474-3.014-7.474-6.719S23.8,0,27.921,0,35.4,3.014,35.4,6.719,32.042,13.438,27.921,13.438Zm-.793-5.871h0V9.981a.865.865,0,1,0,1.73,0V7.54l2.75-.043a.909.909,0,0,0,.639-.268.732.732,0,0,0,.212-.524.831.831,0,0,0-.865-.764h-.015l-2.721.042v-2.4a.865.865,0,1,0-1.73,0V6.012l-2.855.045a.908.908,0,0,0-.638.268.732.732,0,0,0-.212.524.831.831,0,0,0,.865.764H24.3l2.823-.045Z" transform="translate(-0.001)" fill="rgba(255,255,255,0.85)"/>
</svg>
